<svg width="16" height="26" fill="none" xmlns="http://www.w3.org/2000/svg"><mask id="a" fill="#fff"><path d="M15.431 18.835c-2.978 1.532-5.245 3.83-6.712 6.805 0 0 0 .045-.044.045 0 .045-.045.045-.045.09l-.044.045-.045.045-.044.045-.045.045H8.32c-.044 0-.089.045-.089.045h-.533c-.045 0-.09-.045-.09-.045h-.133l-.044-.045c-.044 0-.044-.045-.044-.045l-.045-.045-.044-.045c0-.045-.045-.045-.045-.09 0 0 0-.045-.044-.045-1.467-2.974-3.734-5.273-6.712-6.805a.909.909 0 0 1-.4-1.216.885.885 0 0 1 1.2-.406c2.356 1.217 4.312 2.884 5.823 4.912V.9c0-.495.4-.901.889-.901s.889.406.889.901v21.224c1.511-2.028 3.467-3.695 5.823-4.912a.885.885 0 0 1 1.2.406c.222.45-.044.991-.489 1.216Z"/></mask><path d="M15.431 18.835c-2.978 1.532-5.245 3.83-6.712 6.805 0 0 0 .045-.044.045 0 .045-.045.045-.045.09l-.044.045-.045.045-.044.045-.045.045H8.32c-.044 0-.089.045-.089.045h-.533c-.045 0-.09-.045-.09-.045h-.133l-.044-.045c-.044 0-.044-.045-.044-.045l-.045-.045-.044-.045c0-.045-.045-.045-.045-.09 0 0 0-.045-.044-.045-1.467-2.974-3.734-5.273-6.712-6.805a.909.909 0 0 1-.4-1.216.885.885 0 0 1 1.2-.406c2.356 1.217 4.312 2.884 5.823 4.912V.9c0-.495.4-.901.889-.901s.889.406.889.901v21.224c1.511-2.028 3.467-3.695 5.823-4.912a.885.885 0 0 1 1.2.406c.222.45-.044.991-.489 1.216Z" fill="#fff"/><path d="m15.431 18.835-.452-.892-.005.003.457.89ZM8.72 25.64l-.897-.443-.103.21v.233h1Zm-.044.045v-1h-1v1h1Zm-.045.09.712.702.288-.292v-.41h-1Zm-.044.045.712.702-.712-.702Zm-.045.045.712.702-.712-.702Zm-.044.045-.712-.702.712.702Zm-.045.045v1h.419l.293-.298-.712-.702ZM8.23 26v1h.418l.294-.298L8.23 26Zm-.622-.045v-1H5.217l1.679 1.702.712-.702Zm-.134 0-.711.702.293.298h.418v-1Zm-.044-.045.712-.702-.294-.298H7.43v1Zm-.044-.045h1v-.41l-.288-.292-.712.702Zm-.045-.045.712-.703-.712.703Zm-.044-.045h-1v.41l.288.292.712-.702Zm-.045-.09h-1 1Zm-.044-.045-.897.442.275.558h.622v-1ZM.496 18.835l.457-.889-.005-.003-.452.892Zm.8-1.622.459-.888-.007-.004-.452.892Zm5.823 4.912-.802.597L8.12 25.14v-3.015h-1Zm1.778 0h-1v3.015l1.802-2.418-.802-.597Zm5.823-4.912-.452-.892-.007.004.459.888Zm1.2.406.897-.443-.897.443Zm-.946.327c-3.167 1.63-5.59 4.083-7.152 7.251l1.794.885c1.371-2.78 3.483-4.922 6.273-6.357l-.915-1.779ZM8.719 25.64l-1-.001v-.007a1.103 1.103 0 0 1 .013-.148.944.944 0 0 1 .408-.635.956.956 0 0 1 .535-.164v2a1.045 1.045 0 0 0 1.044-1.03v-.014l-1-.001Zm-1.044.045a.944.944 0 0 1 .215-.603 1.067 1.067 0 0 0-.222.412 1.055 1.055 0 0 0-.038.28h2a.944.944 0 0 1-.259.651l-.007.007.015-.015a1.183 1.183 0 0 0 .15-.196 1.049 1.049 0 0 0 .146-.536h-2Zm.243-.613-.044.046 1.424 1.404.044-.045-1.424-1.405Zm-.044.046-.045.045 1.424 1.404.045-.045-1.424-1.404Zm-.045.045-.044.045 1.424 1.404.044-.045-1.424-1.404Zm-.044.045-.045.045 1.424 1.404.045-.045-1.424-1.404Zm.667-.253h-.044v2h.044v-2Zm-.044 1v-1H8.363v2H8.408v-1Zm-.044 0v-1H8.32v2H8.364v-1Zm-.045-1a1.113 1.113 0 0 0-.774.317l-.015.014a3.266 3.266 0 0 1-.009.009l-.001.001-.001.001.711.703.712.703H8.94l-.002.002a.913.913 0 0 1-.62.25v-2ZM8.23 25h-.044v2h.044v-2Zm-.044 1v-1H8.141v2H8.186v-1Zm-.045-1H7.963v2H8.142v-2Zm-.178 0H7.785v2H7.964v-2Zm-.177 1v-1H7.741v2H7.786v-1Zm-.045-1h-.044v2h.044v-2Zm-.044 0a.913.913 0 0 1 .499.149.789.789 0 0 1 .113.093l.005.005.003.003.001.001.001.001-.711.703-.712.703h.001l.002.002.003.003.006.006a1.865 1.865 0 0 0 .052.048 1.112 1.112 0 0 0 .737.283v-2Zm-.09.955v-1H7.563v2H7.608v-1Zm-.044 0v-1H7.518v2H7.564v-1Zm-.044-1h-.045v2h.045v-2Zm.667.298-.044-.045-1.424 1.404.045.045 1.423-1.404Zm-.756-.343a.956.956 0 0 1 .956.953c0 .001 0 .002-1 .002h-1v.002a.12.12 0 0 0 0 .006.779.779 0 0 0 .002.064 1.06 1.06 0 0 0 .106.393 1.04 1.04 0 0 0 .936.58v-2Zm.668.253-.045-.046-1.424 1.405.045.045 1.423-1.404Zm-.045-.046-.044-.045-1.424 1.405.044.045 1.424-1.404Zm.244.658A1.056 1.056 0 0 0 8 25.043l-.015-.016a.918.918 0 0 1 .232.406.944.944 0 0 1 .034.252h-2a1.055 1.055 0 0 0 .296.731l.015.016-.007-.007a.897.897 0 0 1-.127-.168.952.952 0 0 1-.132-.482h2Zm-1.045-.09 1-.001v-.015a1.118 1.118 0 0 0-.014-.154 1.056 1.056 0 0 0-.445-.697 1.044 1.044 0 0 0-.585-.178v2a.956.956 0 0 1-.956-.952v-.002l1-.001Zm.853-.488C6.542 22.03 4.12 19.575.953 17.947l-.915 1.778c2.79 1.435 4.902 3.577 6.273 6.357l1.794-.885ZM.948 17.943a.091.091 0 0 1 .045.118l-1.794-.885a1.909 1.909 0 0 0 .845 2.551l.904-1.784Zm.045.118a.106.106 0 0 1-.06.049.12.12 0 0 1-.09-.005l.905-1.784a1.885 1.885 0 0 0-2.55.855l1.795.885Zm-.156.04c2.223 1.149 4.06 2.717 5.48 4.621l1.604-1.195c-1.604-2.15-3.677-3.917-6.166-5.202l-.918 1.777Zm7.282 4.024V.9h-2v21.224h2ZM8.119.9c0 .026-.011.05-.027.066A.12.12 0 0 1 8.008 1v-2A1.898 1.898 0 0 0 6.118.901h2ZM8.008 1a.12.12 0 0 1-.084-.033.095.095 0 0 1-.027-.066h2A1.898 1.898 0 0 0 8.007-1v2ZM7.897.901v21.224h2V.9h-2Zm1.802 21.821c1.42-1.904 3.257-3.472 5.48-4.62l-.918-1.777c-2.489 1.285-4.563 3.051-6.166 5.202L9.7 22.722Zm5.473-4.617a.12.12 0 0 1-.089.005.106.106 0 0 1-.06-.049l1.794-.885a1.885 1.885 0 0 0-2.55-.855l.905 1.784Zm-.149-.044a.228.228 0 0 1-.023-.1c0-.028.006-.043.007-.044 0-.002-.002.004-.01.012a.075.075 0 0 1-.018.014l.904 1.784c.787-.398 1.466-1.473.934-2.55l-1.794.884Z" fill="#fff" mask="url(#a)"/></svg>