<svg data-name="Layer 1" xmlns="http://www.w3.org/2000/svg" viewBox="0 0 1050.03 463.94">
    <defs>
        <!-- <style>.cls-1{fill:#fff;}</style> -->
    </defs>
    <g id="Text">
        <path d="M715.26,342h15.23c-1.67-4.73-3.54-9.24-4.85-13.91a103.09,103.09,0,0,1-1.46-49.25,77.56,77.56,0,0,1,20.71-39.2c11-11.26,24.07-18.36,40.25-19.26,12.72-.71,24.52,1.74,35.13,8.78,4.24,2.81,7.94,6.43,12.14,9.89V194.25c-6.46,0-12.9-.2-19.31.08-3.5.16-4.66-.73-4.56-4.42.27-10.45.09-20.9.09-31.62h74.61V342h33.85V194.3h-24V158.22h74.71v77c2.4-1.31,4.32-2.26,6.15-3.37,11.08-6.76,22.88-11.57,36-11.72,15-.16,28.39,3.89,37.9,16.31a41.89,41.89,0,0,1,8.65,21.63c.86,9.08,1.62,18.2,1.77,27.31.27,17.4.08,34.8.08,52.2V342h13.27c0-5.28-.35-10.61.07-15.88,1-12.32,7-22.21,16.14-30.18,16-13.92,34.94-18,55.49-15.09,8.53,1.2,16.89,3.56,25.31,5.38,3.15-17.51-7.6-32.52-26.31-32.94-10.69-.24-19.85,3-27.67,10.12-1.76,1.6-3.1,1.81-5.53,1.31-10.54-2.18-21.19-3.84-31.79-5.72-1.58-.28-3.13-.69-5-1.11,1.93-6.77,6-11.73,10.46-16.28,10.14-10.26,22.7-15.78,36.71-18.67a142.6,142.6,0,0,1,50.7-1c13.51,2,26.23,6.43,36,16.6,6.68,6.94,11.32,15.28,11.65,25,.82,24.51,1,49.05,1.43,73.58,0,1.52,0,3,0,5h23.94v36.15h-74.18V367.42c-14.14,9.34-29,14.53-45.39,13.42s-31-6.91-43-19.95v17.22h-73.11V373.8q0-48.32,0-96.64c0-11.43-6.3-16.72-17.61-15.15-7.27,1-13.68,4.09-19.9,7.65a4.9,4.9,0,0,0-2.13,3.55c-.12,22.34-.09,44.67-.08,67a18.13,18.13,0,0,0,.24,1.83h21.15v36.12H832.78v-16c-32,26.46-62.44,25.46-91.94-4v20.09H665.2v-17.1c-14.05,13.62-29.8,21.2-48.66,19.7s-33.85-10.2-45.61-25.43v22.77H495.42V366.7c-1.43.74-2.31,1.13-3.11,1.63C478.44,377,463.38,382.1,447,380.79c-19.7-1.56-33.84-8.91-40.91-29.23-2.18-6.26-2.57-13.36-2.67-20.09-.32-22-.12-44-.12-66V261.1h-15c1.66,6.79,3.39,13.43,4.89,20.13,2.27,10.15,2.35,20.47,1.27,30.74-1.44,13.7-4.14,27.18-12,38.86-9.91,14.79-22.81,25.46-41,28.91-12.39,2.35-24.39,1.46-35.72-3.63-7.17-3.22-13.62-8-20.41-12.09v14.13H207.86V342.34h25.95V194.25H219.23c-3.06,0-6.13.13-9.17-.08-.85-.06-2.33-1.1-2.34-1.71-.14-11.37-.1-22.74-.1-34.24h77.57v81.17c14.28-14.19,30.43-21,49.8-18.94,19.14,2.05,33.64,11.85,45.53,26.93v-8.24c0-4,.12-8,0-12-.09-2.34.76-3.07,3-3,5.77.13,11.53,0,17.3,0h53.06v4.43q0,47.27,0,94.52a34.9,34.9,0,0,0,.6,6.29c1.16,6.05,5.19,9,11.36,9.49,10.65.85,19.44-3.46,27.78-9.24a4,4,0,0,0,1.51-2.81q.11-32.28,0-64.55a7,7,0,0,0-.41-1.4H471.88c-.13-1.3-.29-2.19-.3-3.09,0-10.11.05-20.22-.05-30.33,0-2.3.42-3.37,3.06-3.36q34.25.13,68.48,0c3.35,0,3.14,1.77,3.14,4q0,54.84,0,109.69v4.12h16.51a51.05,51.05,0,0,0-1.65-5.1c-5.94-13.37-7.5-27.44-6.86-41.87.95-21.66,8.52-40.64,23.74-56.17,11.91-12.15,26.51-18.84,43.78-18.69a56.47,56.47,0,0,1,40.22,16.57c.74.72,1.55,1.38,2.75,2.45V194.33H641.11v-36h74.15Zm118-41.31c-.78-5.54-1.25-11.14-2.4-16.6a28.77,28.77,0,0,0-35.16-21.92c-11.19,2.66-17.68,12.45-20.49,24.37A62.71,62.71,0,0,0,775,314c1.61,7.69,4.58,15.07,10.4,20.31,12.73,11.47,34.06,7.16,42.21-8C831.94,318.31,832.83,309.64,833.28,300.68Zm-227.12.15A50.84,50.84,0,0,0,611,324.65c2.32,4.88,5.24,9.25,9.77,12.15,14.46,9.28,35.79,1.52,41.08-14.89,2.84-8.82,4.52-17.81,3.17-27.17-1.24-8.69-2.5-17.21-8.77-24.16-10.71-11.87-32-12.81-41.8.42C607.88,279.85,605.88,290.05,606.16,300.83Zm-322,1c.33,9.62,2,18.56,6.94,27,8.27,14.23,28,15,38,7.74,8.1-5.89,11.34-14.52,12.83-23.79a70.41,70.41,0,0,0-1.36-30.24c-4.42-15.92-16.92-23.76-33.24-20-11.24,2.58-17.88,10.37-20.54,21.29C285.36,289.66,285,295.79,284.19,301.8Zm884.66,25.84c1.41-4.6-.65-7.2-4.9-8.8-2.62-1-5-2.67-7.54-3.82-8.36-3.76-16.78-5.79-25.74-1.58s-12.4,12.21-9.47,22.22a18.64,18.64,0,0,0,19.64,13.14c9.38-1.12,16.82-6.07,24-11.63C1168.05,334.7,1170.29,332,1168.85,327.64Z" transform="translate(-193.34 -158.22)" />
        <path d="M688.18,481.42c.91,12.73,4.38,23.45,14.83,30.65,11.33,7.81,23.72,10.49,37.07,6.21A52.8,52.8,0,0,0,761,505.05c3-3,5.57-3.83,9.54-2.47,11.41,3.9,22.93,7.52,34.4,11.27a8.06,8.06,0,0,1,1.61,1c-6.85,10.26-14.9,19.05-25.15,25.77C766.1,550.71,749.11,554.57,731,555c-14.5.32-28.79-.65-42.57-5.49-14.09-4.94-26.31-12.7-35.67-24.55-.78-1-1.71-1.86-3.16-3.41v30.14H572.4v-4.35c0-31.62.1-63.24-.1-94.86a51.23,51.23,0,0,0-2.38-14.07c-1.58-5.28-6.11-7.24-11.29-7.3-10.34-.12-19.48,3.59-27.88,9.32a3.57,3.57,0,0,0-1.36,2.55q-.07,34.56,0,69.11c0,.21.18.42.46,1h23.81v38.54H451.91V513.16H476V427.69c-6,0-11.94,0-17.88,0-7.42-.07-6.34,1-6.38-6.28-.06-10.67,0-21.35,0-32.3h77.42v13.61c1.46-.85,2.32-1.29,3.11-1.82,14.17-9.56,29.53-15.4,46.9-14.49,21.78,1.14,36,11.62,42.52,33,2.84,9.28,3.64,18.77,3.58,28.43-.11,20.22,0,40.44,0,60.66v4.41H644.3c-.62-1.67-1.08-3.33-1.82-4.87-4.87-10.12-6.35-20.94-6.8-32-.46-11.35.66-22.57,4.53-33.22,11-30.19,32.1-49.55,63.74-55.92,19.26-3.89,38.69-3.06,56.85,5.66,17.56,8.43,31,21.06,38.66,39.47a107.17,107.17,0,0,1,8.27,38.52c.09,3.49.42,7,.67,10.91ZM754.3,451c-2.48-17.85-15.29-32.82-38.81-30.05-13.71,1.61-26.75,16.17-25.8,30.05Z" transform="translate(-193.34 -158.22)" />
        <path d="M460.3,474.05a76.64,76.64,0,0,1-7.66,34.87c-12.49,25-32.85,39.9-60.46,44.74a98.3,98.3,0,0,1-43.5-1.84,82.27,82.27,0,0,1-39.92-24.94c-11.75-13-17.23-28.49-19.05-45.71-1.73-16.39,0-32.21,6-47.51a70.42,70.42,0,0,1,17.93-25.72,81,81,0,0,1,34.56-19.53,87.67,87.67,0,0,1,15.87-2.87c16.68-1.32,33.14-.35,48.61,6.85C428.91,400,442,411,450.63,427,457.87,440.54,460.24,455,460.3,474.05Zm-54.48-5.77c-.32-8-.81-17-5.07-25.47-4.86-9.68-12.32-15.63-23.05-16.62-10.17-.95-19.6,1.47-25.77,10.34a38,38,0,0,0-5.9,13.38c-3.51,16.36-4.21,32.71,3.44,48.34,4.4,9,11.62,14.31,21.62,15.24,11.53,1.07,21-2.91,27.57-12.71C405,491.26,405.64,480.37,405.82,468.28Z" transform="translate(-193.34 -158.22)" />
        <path d="M907,392.77c.09-.78.23-2.15.4-3.72h38v47.88h-11c-8,0-16-.08-24,.05-2.19,0-3.05-.8-4.23-2.64-2-3.16-4.36-6.87-7.52-8.42a52.21,52.21,0,0,0-40.94-2.78,10.63,10.63,0,0,0-5.57,4.85c-2.39,4.77-.65,9.12,4.48,10.65,7.37,2.2,15,3.62,22.49,5.36,14.91,3.46,30,6.26,44.69,10.56a43.51,43.51,0,0,1,28.3,25.12c6.81,15.6,6.22,31.43-1.73,46.35s-21.28,23.63-37.64,27c-15.15,3.12-30.55,3.37-45.63-.68-5.19-1.4-10-4.36-15-6.66-.08,1.5-.2,3.64-.33,6H813.06V494.9a22.13,22.13,0,0,1,2.45-.25c11.18,0,22.36-.06,33.53.06,1.12,0,3.1.87,3.21,1.56,1.58,10.11,7.68,16.3,16.88,19.76,12.47,4.68,24.89,5.15,37-1.25,4.75-2.52,6.91-6.61,6.17-12-.72-5.11-4.43-7.76-8.92-8.83-10.8-2.59-21.74-4.6-32.57-7.1-16.57-3.82-33.21-7.51-47.13-18.22-16.33-12.55-20.35-30.62-14.51-48.74,3.52-10.93,11.54-18.85,21.43-24.63,15.27-8.94,31.95-10.4,49-8.16C888.72,388.34,897.67,390.81,907,392.77Z" transform="translate(-193.34 -158.22)" />
        <path d="M285.94,389v4q0,80.91-.05,161.83c0,11.71-.95,23.36-4.86,34.61-4.47,12.87-13.71,21-25.73,26.27-11.56,5-23.9,6.48-36.44,6.42-8.44,0-16.88,0-25.52,0V579.33c4.95,0,9.75.33,14.49-.09,5-.44,10.15-.9,14.78-2.59,8.66-3.17,10.18-11,10.2-19,.09-32.44,0-64.88,0-97.31V427.69H220.51c-3.41,0-6.82,0-10.23,0-1.67,0-2.7-.41-2.69-2.33,0-11.76,0-23.51.09-35.26a4,4,0,0,1,.42-1.07Z" transform="translate(-193.34 -158.22)" />
        <!-- <path class="cls-1" d="M833.28,300.68c-.45,9-1.34,17.63-5.63,25.63-8.15,15.16-29.48,19.47-42.21,8-5.82-5.24-8.79-12.62-10.4-20.31a62.71,62.71,0,0,1,.19-27.47c2.81-11.92,9.3-21.71,20.49-24.37a28.77,28.77,0,0,1,35.16,21.92C832,289.54,832.5,295.14,833.28,300.68Z" transform="translate(-193.34 -158.22)" />
        <path class="cls-1" d="M606.15,300.83c-.27-10.78,1.73-21,8.29-29.83,9.8-13.23,31.09-12.29,41.8-.42,6.27,6.95,7.53,15.47,8.77,24.16,1.35,9.36-.33,18.35-3.17,27.17-5.29,16.41-26.62,24.17-41.08,14.89-4.53-2.9-7.45-7.27-9.77-12.15A51,51,0,0,1,606.15,300.83Z" transform="translate(-193.34 -158.22)" />
        <path class="cls-1" d="M284.19,301.8c.83-6,1.17-12.14,2.6-18,2.66-10.92,9.3-18.71,20.54-21.29,16.32-3.75,28.82,4.09,33.24,20a70.41,70.41,0,0,1,1.36,30.24c-1.49,9.27-4.73,17.9-12.83,23.79-10,7.26-29.7,6.49-38-7.74C286.22,320.36,284.52,311.42,284.19,301.8Z" transform="translate(-193.34 -158.22)" />
        <path class="cls-1" d="M1168.85,327.64c1.44,4.36-.8,7.06-4,9.53-7.2,5.56-14.64,10.51-24,11.63a18.64,18.64,0,0,1-19.64-13.14c-2.93-10,.66-18.07,9.47-22.22s17.38-2.18,25.74,1.58c2.57,1.15,4.92,2.83,7.54,3.82C1168.2,320.44,1170.26,323,1168.85,327.64Z" transform="translate(-193.34 -158.22)" />
        <path class="cls-1" d="M754.3,451H689.69c-1-13.88,12.09-28.44,25.8-30.05C739,418.17,751.82,433.14,754.3,451Z" transform="translate(-193.34 -158.22)" />
        <path class="cls-1" d="M405.82,468.28c-.18,12.09-.8,23-7.16,32.5-6.56,9.8-16,13.78-27.57,12.71-10-.93-17.22-6.24-21.62-15.24-7.65-15.63-7-32-3.44-48.34a38,38,0,0,1,5.9-13.38c6.17-8.87,15.6-11.29,25.77-10.34,10.73,1,18.19,6.94,23.05,16.62C405,451.28,405.5,460.28,405.82,468.28Z" transform="translate(-193.34 -158.22)" /> -->
    </g>
    <path id="Period" d="M992.83,555.33c-13.45-.07-24.7-11.23-24.93-24.18-.24-13.16,10.14-27,27-25.95,11.51.69,24.3,11,23.17,26.74A24.71,24.71,0,0,1,992.83,555.33Z" transform="translate(-193.34 -158.22)" fill="#f8a15c"/>
</svg>
