<svg width="12" height="12" viewBox="0 0 12 12" fill="none" xmlns="http://www.w3.org/2000/svg">
<path d="M2.01983 9.0228C4.01028 6.64421 5.35368 3.73582 7.06209 1.16022C7.36791 0.69918 7.31768 2.42844 7.33758 2.64657C7.5224 4.6724 7.45314 6.71727 7.76254 8.73124C7.84226 9.2502 7.86656 9.76692 7.892 10.2908C7.8927 10.3051 7.90907 11.2179 7.99258 11.1929C8.38908 11.0738 7.0155 9.04123 6.90943 8.90803C5.91106 7.65423 4.59222 6.61292 3.29612 5.68064C2.77856 5.30836 2.28325 4.87438 1.70196 4.60162C1.69746 4.59951 1.10389 4.34221 1.12773 4.32642C1.26605 4.23477 1.78808 4.3411 1.92401 4.34316C2.99191 4.35934 4.05893 4.32593 5.12693 4.35872C7.0707 4.41838 8.96895 4.73557 10.8853 5.02792C11.4983 5.12145 10.6089 5.30567 10.3411 5.39715C8.93309 5.87818 7.50664 6.17474 6.14954 6.80366C5.0284 7.32323 4.01299 8.05024 2.90366 8.5708C2.50964 8.7557 2.26366 9.09816 1.8804 9.24879" stroke="#F8A15C" stroke-linecap="round" stroke-linejoin="round"/>
</svg>
